<?xml version="1.0" encoding="iso-8859-1"?>
<!-- Generator: Adobe Illustrator 18.0.0, SVG Export Plug-In . SVG Version: 6.00 Build 0)  -->
<!DOCTYPE svg PUBLIC "-//W3C//DTD SVG 1.1//EN" "http://www.w3.org/Graphics/SVG/1.1/DTD/svg11.dtd">
<svg version="1.1" id="Capa_1" xmlns="http://www.w3.org/2000/svg" xmlns:xlink="http://www.w3.org/1999/xlink" x="0px" y="0px"
	 viewBox="0 0 194.227 194.227" style="enable-background:new 0 0 194.227 194.227;" xml:space="preserve">
<g>
	<path style="fill:#B6D3D6;" d="M130.121,97.402h-4.876c0.952-3.237,1.471-6.662,1.471-10.211c0-19.981-16.199-36.181-36.181-36.181
		c-13.839,0-25.859,7.773-31.944,19.188c-4.233-2.485-9.16-3.916-14.423-3.916c-15.764,0-28.544,12.781-28.544,28.545
		c0,0.871,0.046,1.728,0.122,2.574h-2.761C5.813,97.402,0,103.217,0,110.39c0,7.169,5.813,12.983,12.985,12.983h117.136
		c7.171,0,12.984-5.814,12.984-12.983C143.105,103.217,137.292,97.402,130.121,97.402z"/>
	<path style="opacity:0.3;fill:#90AEAF;" d="M143.105,110.39c0-7.173-5.813-12.987-12.984-12.987h-4.876
		c0.952-3.237,1.471-6.662,1.471-10.211c0-13.83-7.764-25.844-19.168-31.933c-8.475,4.036-15.458,10.697-19.86,18.957
		c-5.12-3.006-11.078-4.736-17.441-4.736c-19.065,0-34.52,15.457-34.52,34.521c0,1.052,0.056,2.091,0.146,3.115h-3.338
		c-8.672,0-15.704,7.03-15.704,15.704c0,0.187,0.021,0.368,0.028,0.554h113.263C137.292,123.373,143.105,117.559,143.105,110.39z"/>
	<path style="fill:#CAF2F9;" d="M178.525,111.811h-5.896c1.15-3.918,1.778-8.06,1.778-12.352c0-24.162-19.589-43.753-43.755-43.753
		c-16.736,0-31.272,9.398-38.63,23.205c-5.12-3.006-11.078-4.736-17.441-4.736c-19.065,0-34.52,15.457-34.52,34.52
		c0,1.052,0.056,2.091,0.146,3.115h-3.338c-8.672,0-15.704,7.03-15.704,15.704c0,8.671,7.031,15.702,15.704,15.702h141.657
		c8.671,0,15.703-7.031,15.703-15.702C194.227,118.841,187.196,111.811,178.525,111.811z"/>
	<path style="opacity:0.05;" d="M180.899,133.071H39.242c-8.093,0-14.752-6.125-15.606-13.99c-1.557,2.438-2.471,5.326-2.471,8.434
		c0,8.671,7.031,15.702,15.704,15.702h141.657c8.671,0,15.703-7.031,15.703-15.702c0-0.579-0.036-1.15-0.098-1.713
		C191.341,130.168,186.463,133.071,180.899,133.071z"/>
</g>
<g>
</g>
<g>
</g>
<g>
</g>
<g>
</g>
<g>
</g>
<g>
</g>
<g>
</g>
<g>
</g>
<g>
</g>
<g>
</g>
<g>
</g>
<g>
</g>
<g>
</g>
<g>
</g>
<g>
</g>
</svg>
